<svg width="23" height="23" viewBox="0 0 23 23" fill="none" xmlns="http://www.w3.org/2000/svg">
<path d="M8.95107 24.2062L8.95163 24.2057C8.95144 24.2059 8.95123 24.206 8.95105 24.2062M8.95107 24.2062L8.95105 24.2062M8.95107 24.2062L10.3111 25.5663M8.95107 24.2062L8.94963 24.2076M8.95105 24.2062C8.95058 24.2067 8.9501 24.2072 8.94963 24.2076M8.95105 24.2062L6.78291 22.0381L6.3366 21.5918L8.94963 24.2076M8.94963 24.2076L10.3111 25.5663M10.3111 25.5663C10.3105 25.5669 10.3099 25.5676 10.3092 25.5682M10.3111 25.5663L12.5191 27.7742L10.3111 25.5663M10.3111 25.5663L10.3111 25.5663M10.3111 25.5663C10.3113 25.5661 10.3115 25.5659 10.3117 25.5657C10.3151 25.5623 10.3185 25.5589 10.3219 25.5555L10.3111 25.5663M10.3092 25.5682C10.3039 25.5735 10.2987 25.5787 10.2934 25.584L10.3006 25.5768L10.3092 25.5682ZM10.3092 25.5682L10.3111 25.5663M9.57186 22.0381L7.25088 21.0763H7.25091L9.57186 22.0381Z" fill="#3C39D1" stroke="#3C39D1" stroke-width="21.3333"/>
</svg>
